inDegrees=yes
name=ik_tiny_file
DataType=double
version=3
OpenSimVersion=4.4-2022-07-23-0e9fedc
endheader
time	pelvis_tilt	pelvis_list	pelvis_rotation	pelvis_tx	pelvis_ty	pelvis_tz	hip_flexion_r	hip_adduction_r	hip_rotation_r	knee_angle_r	knee_angle_r_beta	ankle_angle_r	subtalar_angle_r	mtp_angle_r	hip_flexion_l	hip_adduction_l	hip_rotation_l	knee_angle_l	knee_angle_l_beta	ankle_angle_l	subtalar_angle_l	mtp_angle_l	lumbar_extension	lumbar_bending	lumbar_rotation	arm_flex_r	arm_add_r	arm_rot_r	elbow_flex_r	pro_sup_r	wrist_flex_r	wrist_dev_r	arm_flex_l	arm_add_l	arm_rot_l	elbow_flex_l	pro_sup_l	wrist_flex_l	wrist_dev_l
0	-0.04155662268456208	89.98289972291592	0.03229111912409514	0	0.9399999999999999	0	44.71739138116507	-10.22495649628266	0	59.96948201958958	1.046664911957377	-5.177100293489498	0	0	44.71739138116507	-10.22495649628266	0	59.96948201958958	1.046664911957377	-5.177100293489498	0	0	0.02866720473300401	0.008006473712228998	0.005979635462803293	-0.5684386803750331	-0.1265393923176398	-0.003793351279840334	1.107642731252752	44.92482687791575	0	4.999238051873394	-0.6078444412955801	-0.1585033165770572	-0.01607149226932821	1.179757460537073	44.92482687791575	0	4.999238051873394
0.02	-0.04058341678087335	89.92030854175512	0.03090993374518813	0	0.9399999999999999	0	44.71757055837177	-10.22445853368658	0	59.96949727781498	1.046665178263648	-5.176944659531381	0	0	44.71757055837177	-10.22445853368658	0	59.96949727781498	1.046665178263648	-5.176944659531381	0	0	0.02404147477298478	0.0369296420841892	0.01376271672224559	-0.2913016897229633	-0.08161459284854307	-0.01617773470336255	0.6046578804469593	44.92495853132381	0	4.999241040174598	-0.2332791406751317	-0.04928631459886091	-0.0008601005366690866	0.5494575604355929	44.92495853132381	0	4.999241040174598
0.04	-0.04374718373460121	89.84908801836599	0.02578596107507296	0	0.9399999999999999	0	44.71761299742233	-10.22434129614116	0	59.96950090807703	1.046665241623673	-5.17690785567044	0	0	44.71761299742233	-10.22434129614116	0	59.96950090807703	1.046665241623673	-5.17690785567044	0	0	0.07265958963388475	0.05099543984294382	0.02951052345274164	-0.3074697863705042	-0.09772294327626464	-0.02435062252679292	0.6072013599636014	44.92498956162805	0	4.999241741756141	-0.199508620367128	-0.04759709195392387	-0.02539407378992388	0.5227755983725657	44.92498956162805	0	4.999241741756141
0.06	-0.03626936676399722	89.7778034605648	0.0069593207834416	0	0.9399999999999999	0	44.7298014501231	-10.19489668112021	0	59.97054848157251	1.046683525230326	-5.166557152390219	0	0	44.7298014501231	-10.19489668112021	0	59.97054848157251	1.046683525230326	-5.166557152390219	0	0	0.09922543514675861	0.09159682390336704	0.03631220882019628	-0.6042931628608506	-0.1735090312160293	-0.01365213790125186	1.185789438533788	44.93308693554749	0	4.999396400459517	-0.458385450059862	-0.04887328100675892	0.009565193210257611	1.061684657877482	44.93308693554749	0	4.999396400459517
0.08	-0.02272452334464531	89.70711254308675	-0.01718020379902947	0	0.9399999999999999	0	44.73000101308203	-10.19439382058565	0	59.97056562978919	1.046683824523168	-5.166386615905585	0	0	44.73000101308203	-10.19439382058565	0	59.97056562978919	1.046683824523168	-5.166386615905585	0	0	0.09003695422842282	0.1256841875594688	0.07078846913477937	-0.2943995854892807	-0.09510934129458117	-0.02977223245726589	0.6115353648237704	44.93322351534045	0	4.999399160443993	-0.1037174922616473	0.0685107167284731	0.04399854606077219	0.4735527403087834	44.93322351534045	0	4.999399160443993
0.1	-0.004713387264123015	89.66018383153265	-0.04978106673105768	0	0.9399999999999999	0	44.74128302593186	-10.16957582925211	0	59.97154410735022	1.046700902178265	-5.156954765652499	0	0	44.74128302593186	-10.16957582925211	0	59.97154410735022	1.046700902178265	-5.156954765652499	0	0	0.158729119572209	0.1412002756375006	0.1689841946947553	-0.4169497833830241	-0.1364353653677662	-0.08978291304421646	0.783193691097409	44.94022599810694	0	4.999518927013058	-0.1637556208365481	0.09285004810167391	0.09446429436152819	0.5528616989082163	44.94022599810694	0	4.999518927013058
0.12	0.04986767124480724	89.59338581521672	-0.1082716502770397	0	0.9399999999999999	0	44.75155366205309	-10.14885716558429	0	59.97244241578463	1.046716580618144	-5.148492284745538	0	0	44.75155366205309	-10.14885716558429	0	59.97244241578463	1.046716580618144	-5.148492284745538	0	0	0.2288410325836318	0.1887516904345747	0.2778598160491793	-0.4590605030203868	-0.1557318813669205	-0.1468333428819736	0.7645556244249174	44.94621205927037	0	4.99961139186239	-0.1715470464586707	0.1194431170806491	0.2677895194948468	0.5356364794676207	44.94621205927037	0	4.99961139186239
0.14	0.09880257803558548	89.53306522963301	-0.163777223474405	0	0.9399999999999999	0	44.76380307050583	-10.12678452718252	0	59.97352533441289	1.046735481113738	-5.138585419877689	0	0	44.76380307050583	-10.12678452718252	0	59.97352533441289	1.046735481113738	-5.138585419877689	0	0	0.2991156785645483	0.2375530543403017	0.3512930662093086	-0.4787076724206509	-0.1490761442559686	-0.169150150061459	0.6596901060424737	44.95279253429833	0	4.999699987246389	-0.1596395760878723	0.154304992403107	0.4059315129327335	0.4027702146288631	44.95279253429833	0	4.999699987246389
0.16	0.1348014350232617	89.4745372944584	-0.2096745561384275	0	0.9399999999999999	0	44.7736151453644	-10.11073890332243	0	59.97440100475172	1.046750764444313	-5.130778909194472	0	0	44.7736151453644	-10.11073890332243	0	59.97440100475172	1.046750764444313	-5.130778909194472	0	0	0.3330715058676424	0.2590270502861159	0.3470536060215672	-0.7750121781318996	-0.2128095610545317	-0.1704941490234395	1.223190029756388	44.95770395197074	0	4.999759108491494	-0.4156357932334838	0.09091028269288841	0.3893141615741272	0.9229887376861923	44.95770395197074	0	4.999759108491494
0.18	0.2196598875676798	89.42156235908102	-0.2999644010870391	0	0.9399999999999999	0	44.78455365656644	-10.09460382524702	0	59.97538696691209	1.046767972730311	-5.122224770668386	0	0	44.78455365656644	-10.09460382524702	0	59.97538696691209	1.046767972730311	-5.122224770668386	0	0	0.3513950271447767	0.2731105424642415	0.3292370663553639	-0.522973012758201	-0.1556600272010169	-0.1621053222224036	0.6781315548765537	44.96278460810966	0	4.999813237209993	-0.1210785094646892	0.1701472626706206	0.3332442727784842	0.3763116277386198	44.96278460810966	0	4.999813237209993
0.2	0.296628065286724	89.36712065641404	-0.3878915209281874	0	0.9399999999999999	0	44.79245302098458	-10.08393235155228	0	59.97610510355219	1.04678050657916	-5.116138439888958	0	0	44.79245302098458	-10.08393235155228	0	59.97610510355219	1.04678050657916	-5.116138439888958	0	0	0.3623350714602588	0.273189749477049	0.3092411013142073	-0.5338733159225653	-0.1385640227173081	-0.1512073724555331	0.6822151991066886	44.96622608346468	0	4.999846364316121	-0.0806817300885871	0.1640642876281106	0.3077182462924398	0.3621715602400969	44.96622608346468	0	4.999846364316121
0.22	0.4047129079757879	89.30215169699764	-0.5052181265409175	0	0.9399999999999999	0	44.8052091851435	-10.06852778633523	0	59.97727716258829	1.046800962868368	-5.106491050619396	0	0	44.8052091851435	-10.06852778633523	0	59.97727716258829	1.046800962868368	-5.106491050619396	0	0	0.3995647694871586	0.2955848198230295	0.2958925673568333	-0.5847923992237423	-0.1076178306580509	-0.1224945097942968	0.6989424105050792	44.97135044483262	0	4.999889451492861	-0.08300771982518344	0.1498761144649514	0.2876594966428315	0.337748054071544	44.97135044483262	0	4.999889451492861
0.24	0.521820840507396	89.22464971679709	-0.6380206574916942	0	0.9399999999999999	0	44.81169177209047	-10.06149705515549	0	59.9778791227624	1.046811469055372	-5.101676491097448	0	0	44.81169177209047	-10.06149705515549	0	59.9778791227624	1.046811469055372	-5.101676491097448	0	0	0.3990152630046144	0.330950139018433	0.3010368905054613	-0.5946971719619684	-0.09310450823903922	-0.0880951627618453	0.7081487306886161	44.9737585504281	0	4.999907341734155	-0.03406286390408211	0.1460643352860709	0.2778802266264909	0.325244166071025	44.9737585504281	0	4.999907341734155
0.26	0.5452225206561583	89.17260154690273	-0.6715180150289781	0	0.9399999999999999	0	44.81171867612742	-10.06146651165685	0	59.97788162891919	1.04681151279606	-5.101656380639258	0	0	44.81171867612742	-10.06146651165685	0	59.97788162891919	1.04681151279606	-5.101656380639258	0	0	0.4233156914231505	0.3312720895452912	0.2959680808039741	-0.6166670500155943	-0.08366538562917709	-0.07422294688996156	0.7034554310358342	44.9737688696035	0	4.99990742326298	-0.05047391212805977	0.1814937566851946	0.2734785728027272	0.322150979819797	44.9737688696035	0	4.99990742326298
0.28	0.8065860445275118	89.09146218449195	-0.9342944711582581	0	0.9399999999999999	0	44.81933891610279	-10.05380517997346	0	59.97859440288338	1.046823953048557	-5.096067813631504	0	0	44.81933891610279	-10.05380517997346	0	59.97859440288338	1.046823953048557	-5.096067813631504	0	0	0.420029483271715	0.3882475657276682	0.2690658982944804	-0.6206620128422138	-0.1067348424365453	-0.05305417523869462	0.7183638581210118	44.97644835670268	0	4.999925604453647	-0.01096421622524535	0.2348413842297602	0.258622421603975	0.3102995924113777	44.97644835670268	0	4.999925604453647
